<svg height="1499.033" viewBox="0 0 1398.632 1499.033" width="1398.632" xmlns="http://www.w3.org/2000/svg" xmlns:xlink="http://www.w3.org/1999/xlink"><clipPath id="a"><path d="m1107.269 584.857c-110.812 7.757-201.321-50.369-271.525-140.197-57.181-72.648-94.017-148.845-132.232-233.167-18.239-40.243-.401-87.651 39.842-105.89s87.65-.4 105.89 39.842c43.215 101.886 137.644 288.647 246.51 279.824 105.24-8.529 116.892 150.672 11.516 159.587z"/></clipPath><clipPath id="b"><path d="m1359.079 569.18c18.039 65.016-33.854 164.389-86.395 200.927-42.684 34.488-100.194 54.748-156.807 58.514-126.053 13.082-235.123-58.57-323.885-152.813-71.181-77.291 41.868-185.314 115.809-110.396 89.418 93.433 173.103 138.264 265.329 79.448 12.012-9.55 20.481-21.257 25.33-34.969"/></clipPath><path d="m1091.012 538.644c-168.024 15.084-265.553-156.234-330.59-286.244-31.611-60.671-64.297-123.411-93.445-141.948-23.302-14.818-30.178-45.721-15.36-69.022s45.721-30.177 69.022-15.359c96.909 64.11 149.131 260.458 234.065 350.567 40.796 46.01 81.906 65.779 129.517 62.237 65.749-3.676 72.633 94.419 6.79 99.77z" fill="#fff"/><path d="m1070.668 542.563c-32.741 0-64.388-7.131-94.333-21.286-31.64-14.956-62.401-38.27-91.43-69.295-53.019-56.665-94.036-132.01-127.167-198.24-31.416-60.294-63.908-122.656-92.372-140.759-11.946-7.597-20.219-19.391-23.294-33.209s-.585-28.008 7.013-39.954c7.597-11.946 19.391-20.218 33.21-23.293 13.819-3.073 28.008-.585 39.954 7.013 55.286 36.574 96.38 115.971 136.121 192.754 30.342 58.624 61.716 119.243 98.517 158.286 40.177 45.309 80.551 64.767 127.111 61.303 35.994-2.013 54.234 24.153 55.96 49.315 1.724 25.132-12.777 53.51-48.689 56.436-6.909.62-13.78.929-20.601.929zm-376.76-521.318c-3.428 0-6.881.376-10.309 1.139-12.255 2.727-22.714 10.063-29.451 20.656-6.736 10.594-8.945 23.177-6.218 35.431s10.063 22.713 20.656 29.45c29.822 18.966 62.692 82.053 94.479 143.063 32.977 65.918 73.727 140.794 126.222 196.898 55.712 59.544 115.059 88.707 180.819 88.71 6.813 0 13.684-.313 20.637-.937.009 0 .018-.001.025-.002 31.864-2.589 44.732-27.757 43.204-50.045-1.53-22.316-17.693-45.52-49.585-43.739-48.535 3.612-90.469-16.483-131.929-63.242-37.315-39.587-68.887-100.586-99.418-159.576-39.388-76.102-80.117-154.794-134.058-190.479-7.598-4.831-16.251-7.328-25.076-7.328z" fill="#3375e0"/><path d="m1107.269 584.857c-110.812 7.757-201.321-50.369-271.525-140.197-57.181-72.648-94.017-148.845-132.232-233.167-18.239-40.243-.401-87.651 39.842-105.89s87.65-.4 105.89 39.842c43.215 101.886 137.644 288.647 246.51 279.824 105.24-8.529 116.892 150.672 11.516 159.587z" fill="#a8cffb"/><path d="m1087.741 588.543c-46.354 0-90.974-11.59-132.903-34.56-43.466-23.81-84.33-59.97-121.457-107.476-58.023-73.718-95.833-152.646-132.601-233.776-9.152-20.193-9.893-42.741-2.085-63.491 7.807-20.75 23.228-37.217 43.421-46.369 41.685-18.892 90.968-.349 109.86 41.336 21.387 50.421 55.777 122.667 98.326 180.896 49.87 68.249 98.727 100.941 145.209 97.176 25.084-2.029 46.875 5.089 63.01 20.595 14.277 13.72 23.117 33.071 24.891 54.489 1.802 21.75-3.882 42.711-16.004 59.02-13.696 18.428-34.404 29.307-59.886 31.463-.015.001-.029.002-.043.003-6.611.463-13.193.694-19.738.694zm19.528-3.686h.01zm-330.998-483.386c-10.617 0-21.395 2.204-31.679 6.865-18.733 8.49-33.039 23.768-40.282 43.018s-6.556 40.168 1.935 58.901c36.609 80.781 74.242 159.352 131.856 232.55 77.629 99.328 168.114 146.115 268.937 139.061 52.777-4.475 73.485-46.681 70.395-84.007-3.018-36.455-29.783-73.778-81.437-69.599-2.584.209-5.176.313-7.742.313-106.081.018-196.636-175.54-241.771-281.956-12.845-28.338-40.902-45.146-70.211-45.146z" fill="#3375e0"/><g clip-path="url(#a)" fill="#fff"><path d="m1017.022 623.831c-9.344 0-17.697-6.582-19.593-16.095-4.295-21.549-10.549-64.598-4.187-110.789 6.444-46.79 23.788-83.823 51.55-110.07 8.025-7.59 20.686-7.233 28.273.792 7.588 8.026 7.233 20.685-.793 28.273-44.842 42.396-47.8 122.834-35.615 183.976 2.159 10.833-4.873 21.364-15.705 23.523-1.319.263-2.635.39-3.931.39z"/><path d="m884.998 552.845c-1.424 0-2.868-.153-4.316-.472-10.788-2.374-17.608-13.043-15.235-23.831 13.938-63.348 58.841-116.669 106.379-173.121 3.621-4.3 7.253-8.613 10.881-12.942 7.092-8.466 19.705-9.581 28.175-2.486 8.467 7.094 9.579 19.708 2.485 28.175-3.648 4.355-7.302 8.694-10.944 13.02-44.272 52.573-86.09 102.231-97.909 155.951-2.056 9.34-10.329 15.707-19.515 15.707z"/><path d="m712.26 229.709c-12.165 0-23.878-1.458-34.666-4.465-10.64-2.966-16.861-13.996-13.896-24.636 2.966-10.639 13.996-16.861 24.636-13.896 28.552 7.958 68.69-.05 99.875-19.929 25.291-16.122 41.279-37.453 45.021-60.064 1.803-10.897 12.102-18.265 22.996-16.467 10.897 1.803 18.27 12.099 16.467 22.997-5.619 33.965-27.986 64.957-62.982 87.265-29.651 18.902-65.136 29.195-97.45 29.195z"/><path d="m738.773 335.015c-5.973 0-11.677-.482-17.067-1.462-10.868-1.975-18.077-12.386-16.103-23.253s12.392-18.078 23.253-16.102c22.443 4.076 58.282-6.87 93.534-28.572 35.338-21.753 62.746-49.66 71.526-72.83 3.915-10.328 15.458-15.529 25.79-11.614 10.329 3.915 15.528 15.461 11.614 25.79-11.938 31.5-44.821 66.161-87.962 92.717-37.258 22.935-74.329 35.326-104.586 35.326z"/><path d="m777.001 434.02c-9.202 0-17.484-6.389-19.522-15.749-2.351-10.793 4.493-21.447 15.286-23.798 61.384-13.368 118.68-51.77 170.296-114.139 7.043-8.51 19.65-9.698 28.159-2.656 8.51 7.042 9.699 19.649 2.657 28.159-22.183 26.803-44.848 49.062-69.29 68.048-38.958 30.261-80.446 50.337-123.311 59.672-1.434.312-2.866.462-4.275.462z"/></g><path d="m1087.741 588.543c-46.354 0-90.974-11.59-132.903-34.56-43.466-23.81-84.33-59.97-121.457-107.476-58.023-73.718-95.833-152.646-132.601-233.776-9.152-20.193-9.893-42.741-2.085-63.491 7.807-20.75 23.228-37.217 43.421-46.369 41.685-18.892 90.968-.349 109.86 41.336 21.387 50.421 55.777 122.667 98.326 180.896 49.87 68.249 98.727 100.941 145.209 97.176 25.084-2.029 46.875 5.089 63.01 20.595 14.277 13.72 23.117 33.071 24.891 54.489 1.802 21.75-3.882 42.711-16.004 59.02-13.696 18.428-34.404 29.307-59.886 31.463-.015.001-.029.002-.043.003-6.611.463-13.193.694-19.738.694zm19.528-3.686h.01zm-330.998-483.386c-10.617 0-21.395 2.204-31.679 6.865-18.733 8.49-33.039 23.768-40.282 43.018s-6.556 40.168 1.935 58.901c36.609 80.781 74.242 159.352 131.856 232.55 77.629 99.328 168.114 146.115 268.937 139.061 52.777-4.475 73.485-46.681 70.395-84.007-3.018-36.455-29.783-73.778-81.437-69.599-2.584.209-5.176.313-7.742.313-106.081.018-196.636-175.54-241.771-281.956-12.845-28.338-40.902-45.146-70.211-45.146z" fill="#3375e0"/><path d="m657.49 69.349c-17.624-6.806-29.695-9.196-48.423-1.76-24.273 9.637-10.155 24.46 7.562 25.48 18.305 1.054 36.49 9.293 50.347 17.384" fill="#fff"/><path d="m666.974 113.453c-.514 0-1.034-.132-1.51-.41-17.851-10.422-34.339-16.134-49.007-16.979-11.999-.691-21.977-6.965-23.21-14.594-.613-3.8.481-11.019 14.713-16.669 19.206-7.625 32.112-5.393 50.611 1.75 1.545.597 2.314 2.334 1.718 3.879-.598 1.546-2.334 2.318-3.88 1.718-17.411-6.723-28.771-8.704-46.234-1.771-7.55 2.998-11.561 6.692-11.004 10.136.673 4.166 7.918 9.001 17.632 9.561 15.621.9 33.011 6.885 51.687 17.788 1.431.835 1.913 2.672 1.078 4.104-.558.955-1.562 1.488-2.594 1.488z" fill="#3375e0"/><path d="m663.601 33.638c-13.852-7.992-56.374.631-66.453 4.666-21.702 8.689-2.819 28.388 21.44 25.288 25.036-3.2 29.715 5.52 43.448 12.151" fill="#fff"/><path d="m662.034 78.743c-.438 0-.882-.096-1.303-.299-3.416-1.649-6.231-3.384-8.954-5.062-8.27-5.094-14.799-9.114-32.81-6.815-17.385 2.222-31.608-6.106-33.989-15.279-.802-3.09-1.33-10.811 11.055-15.77 8.661-3.468 53.262-13.6 69.067-4.479 1.436.828 1.928 2.663 1.1 4.098s-2.663 1.927-4.098 1.099c-12.396-7.152-53.529.725-63.839 4.853-3.293 1.318-8.643 4.2-7.478 8.691 1.47 5.66 12.89 12.693 27.422 10.835 20.109-2.57 28.177 2.398 36.716 7.658 2.595 1.598 5.277 3.251 8.417 4.767 1.492.72 2.117 2.514 1.396 4.006-.517 1.072-1.588 1.696-2.703 1.696z" fill="#3375e0"/><path d="m708.376 20.421c-35.781-13.965-87.963-19.666-101.102-16.626-19.012 4.399-8.562 29.974 18.584 30.332 21.122.278 36.543 12.796 36.543 12.796" fill="#fff"/><path d="m662.4 49.923c-.664 0-1.333-.219-1.889-.671-.144-.116-14.926-11.865-34.691-12.125-18.079-.237-30.032-11.073-31.144-21.412-.782-7.272 3.786-12.959 11.922-14.842 14.521-3.359 67.487 2.944 102.869 16.753 1.543.603 2.307 2.342 1.704 3.886-.603 1.542-2.34 2.306-3.886 1.704-36.053-14.072-87.385-19.264-99.334-16.498-5.165 1.195-7.761 4.162-7.31 8.354.683 6.35 9.182 15.843 25.256 16.055 21.913.288 37.732 12.928 38.395 13.466 1.286 1.044 1.482 2.934.438 4.22-.593.73-1.458 1.109-2.331 1.109z" fill="#3375e0"/><path d="m741.451 42.386c-9.176-7.531-21.245-16.4-30.322-18.335-15.704-3.347-43.362 3.429-52.286 4.935-27.994 4.725-11.3 29.619 10.641 29.373 13.625-.153 24.476-1.021 24.476-1.021s-3.837 17.781 18.172 25.846" fill="#fff"/><path d="m712.131 86.185c-.343 0-.691-.06-1.032-.184-17.711-6.49-20.27-19.082-20.353-25.434-4.302.271-12.196.69-21.229.792-.121 0-.244.002-.365.002-15.026 0-27.138-10.399-27.98-19.818-.334-3.737.67-12.73 17.172-15.515 1.452-.245 3.482-.647 5.833-1.113 12.68-2.511 33.904-6.714 47.577-3.798 7.736 1.649 18.073 7.847 31.601 18.95 1.28 1.051 1.467 2.941.416 4.222-1.052 1.281-2.94 1.466-4.223.416-12.591-10.333-22.363-16.295-29.044-17.719-12.47-2.66-33.736 1.553-45.162 3.816-2.395.474-4.463.884-6 1.143-3.852.65-12.751 2.835-12.193 9.064.586 6.553 10.507 14.353 22.017 14.353.096 0 .189 0 .285-.002 13.354-.149 24.163-1.003 24.271-1.011.954-.079 1.872.301 2.496 1.014.625.714.876 1.682.676 2.609-.124.608-2.889 15.375 16.271 22.396 1.556.57 2.354 2.293 1.784 3.849-.444 1.215-1.594 1.969-2.816 1.969z" fill="#3375e0"/><path d="m768.939 71.981c-15.837 27.936-44.182 49.93-80.62 58.589 6.428 7.892 12.393 16.121 17.888 24.692 40.438-8.181 70.695-26.086 83.772-54.392-6.723-10.071-13.71-19.74-21.041-28.888z" fill="#a8cffb"/><path d="m706.208 158.261c-1.009 0-1.967-.509-2.525-1.381-5.396-8.415-11.347-16.629-17.689-24.417-.652-.8-.847-1.88-.515-2.858.331-.978 1.143-1.717 2.147-1.956 34.01-8.082 62.696-28.912 78.704-57.149.49-.866 1.378-1.432 2.37-1.511.997-.083 1.959.338 2.58 1.114 7.132 8.899 14.064 18.417 21.195 29.099.58.868.666 1.976.229 2.924-12.901 27.925-42.605 47.315-85.901 56.074-.198.04-.397.06-.595.06zm-12.642-25.937c4.968 6.319 9.677 12.883 14.045 19.582 39.467-8.375 66.687-25.891 78.926-50.787-5.799-8.624-11.474-16.475-17.242-23.856-16.412 26.5-43.618 46.282-75.729 55.061z" fill="#3375e0"/><path d="m743.84 1237.665c-145.84-9.729-296.642-106.151-363.571-233.056-84.401-156.468-18.328-342.989 160.877-388.539 167.258-45.103 358.844 14.573 510.746 114.74 71.863 46.074 41.073 160.294-42.99 165.016-19.014 1.371-38.612-3.267-55.782-14.537-108.933-70.919-245.697-121.172-363.285-91.933-29.231 8.215-50.189 21.784-57.5 37.23-45.421 112.788 117.997 220.446 219.581 232.49 104.607 18.527 96.759 185.584-8.077 178.59z" fill="#fff"/><path d="m750.101 1240.876c-2.127 0-4.281-.073-6.461-.218-71.08-4.742-146.652-30.687-212.795-73.055-66.226-42.42-120.644-99.81-153.229-161.596-43.224-80.131-48.654-170.229-14.884-247.167 32.023-72.96 95.124-124.696 177.675-145.68 79.82-21.524 168.185-20.556 262.594 2.89 84.282 20.93 170.918 59.747 250.543 112.253 33.699 21.605 48.729 61.32 38.26 101.158-10.486 39.899-42.961 67.124-82.733 69.358-20.442 1.481-40.374-3.72-57.597-15.025-128.043-83.36-259.593-116.724-360.914-91.529-28.258 7.943-48.501 20.895-55.475 35.523-12.963 32.262-9.326 65.847 10.81 99.825 40.95 69.101 139.009 120.494 206.376 128.482.057.007.113.015.17.025 26.629 4.716 48.009 19.054 61.829 41.461 12.108 19.633 17.383 44.637 14.47 68.602-2.613 21.503-11.569 40.667-25.217 53.96-13.992 13.629-32.359 20.732-53.421 20.732zm-6.062-6.204c51.493 3.432 74.602-35.137 78.744-69.211 5.365-44.143-17.403-93.825-71.306-103.417-68.78-8.19-168.879-60.725-210.745-131.371-21.155-35.7-24.917-71.097-11.179-105.209.022-.055.046-.109.071-.163 7.681-16.23 29.332-30.385 59.4-38.834 55.583-13.823 118.308-10.986 186.52 8.41 58.477 16.627 120.447 45.638 179.213 83.897 16.121 10.582 34.775 15.444 53.93 14.06 37.173-2.088 67.502-27.561 77.314-64.896 9.796-37.274-4.228-74.408-35.728-94.603-172.011-113.425-357.283-155.104-508.346-114.369-80.764 20.529-142.437 71.057-173.702 142.287-33.022 75.233-27.669 163.414 14.684 241.931 66.755 126.575 215.251 221.755 361.129 231.488z" fill="#3375e0"/><path d="m656.026 1232.814c-69.126 1.707-158.347-63.976-207.148-107.284-107.259-97.794-161.592-251.315-97.314-384.513 72.196-149.604 259.72-181.934 421.505-142.405 89.778 20.797 180.859 61.248 270.714 120.228 50.788 33.336 64.935 101.533 31.598 152.32-19.562 29.802-51.132 46.988-84.14 49.366-23.242 1.675-47.195-3.993-68.181-17.768-67.118-44.055-136.152-75.116-199.643-89.825-60.66-12.855-141.382-19.902-173.008 22.206-31.325 81.232 72.128 159.981 138.629 185.79 28.597 64.454 7.319 179.622-33.013 211.886z" fill="#fff"/><path d="m653.384 1235.846c-78.554 0-177.715-82.53-206.497-108.073-54.714-49.885-95.147-113.947-113.88-180.41-20.347-72.189-14.864-143.994 15.856-207.651 33.838-70.119 95.746-119.812 179.031-143.707 73.302-21.031 160.626-21.141 245.889-.309 90.088 20.868 181.495 61.458 271.647 120.634 25.233 16.563 42.506 41.96 48.637 71.515 6.132 29.554.387 59.727-16.177 84.959-19.477 29.674-50.98 48.158-86.432 50.713-24.902 1.792-49.119-4.518-70.043-18.253-66.826-43.864-135.526-74.781-198.674-89.41-60.449-12.81-138.928-19.584-169.682 20.753-16.642 43.783 8.296 84.068 32.193 110.183 32.059 35.032 75.193 59.822 104.871 71.34.74.287 1.336.855 1.657 1.58 13.412 30.229 16.985 74.985 9.56 119.722-7.309 44.025-23.548 79.81-43.44 95.723-.512.41-1.145.64-1.8.656-.901.022-1.81.033-2.717.033zm2.643-3.032h.01zm-8.399-646.482c-121.218 0-239.592 44.568-293.362 155.988-67.804 140.504-.323 292.593 96.633 380.993 28.346 25.155 126.041 106.534 202.447 106.534.528 0 1.059-.004 1.584-.012 37.299-31.108 59.779-141.775 31.857-206.566-30.267-11.955-73.623-37.088-105.961-72.427-25.114-27.444-51.264-69.982-33.216-116.783.1-.258.234-.501.4-.722 32.474-43.238 113.648-36.558 176.028-23.338 63.885 14.799 133.256 46.003 200.668 90.251 19.812 13.005 42.744 18.987 66.318 17.284 33.572-2.419 63.404-19.922 81.848-48.021 15.684-23.893 21.123-52.463 15.318-80.448-5.806-27.985-22.162-52.034-46.056-67.718-89.558-58.786-180.313-99.097-269.743-119.813-40.203-9.823-82.658-15.202-124.766-15.202z" fill="#3375e0"/><path d="m751.917 1059.075 108.601 13.473-41.13 331.534s-52.349-3.037-64.557-43.091c-15.302-50.206-16.322-83.488-23.541-124.453 0 0-22.639-1.714-40.874-6.446-.698-37.281 50.462-35.013 50.462-35.013 9.043-23.507 22.303-98.054 11.038-136.003z" fill="#a8cffb"/><g fill="#3375e0"><path d="m819.39 1407.081c-.058 0-.116-.001-.176-.005-2.223-.129-54.581-3.636-67.253-45.211-10.769-35.334-14.574-62.805-18.254-89.371-1.48-10.686-3.008-21.713-4.976-33.163-6.293-.572-24.004-2.426-39.069-6.336-1.303-.338-2.221-1.502-2.245-2.848-.186-9.884 3.001-18.093 9.47-24.398 12.87-12.545 34.851-13.678 41.909-13.702 8.73-24.776 20.955-96.038 10.244-132.118-.288-.971-.067-2.021.587-2.793s1.652-1.165 2.658-1.038l108.602 13.473c.79.098 1.508.505 1.997 1.133s.709 1.424.611 2.213l-41.13 331.534c-.188 1.51-1.472 2.631-2.976 2.631zm-125.944-179.324c17.332 4.182 37.857 5.773 38.071 5.79 1.367.104 2.49 1.121 2.728 2.471 2.181 12.374 3.82 24.209 5.406 35.654 3.647 26.335 7.42 53.566 18.051 88.445 9.868 32.377 48.337 39.358 59.07 40.686l40.399-325.646-101.216-12.557c9.69 40.905-4.051 112.174-12.277 133.556-.463 1.203-1.64 1.983-2.931 1.92-.265-.01-26.405-.979-39.686 11.983-4.731 4.618-7.287 10.564-7.616 17.699z"/><path d="m686.04 1226.718h334.343v26.752h-334.343z" transform="matrix(-.12311652 .99239222 -.99239222 -.12311652 2188.914 546.048)"/><path d="m845.904 1410.64c-.123 0-.246-.007-.369-.023l-26.548-3.293c-1.645-.204-2.813-1.702-2.608-3.346l41.162-331.799c.099-.79.506-1.508 1.134-1.997.627-.489 1.424-.712 2.213-.611l26.548 3.293c1.645.204 2.813 1.702 2.608 3.346l-41.162 331.799c-.099.79-.506 1.508-1.134 1.997-.529.413-1.179.634-1.844.634zm-23.201-8.901 20.594 2.555 40.423-325.845-20.594-2.555z"/><path d="m742.138 1314.405c-1.216 0-2.359-.745-2.811-1.951-.579-1.552.209-3.28 1.761-3.86.134-.05 13.813-5.309 19.037-16.256 4.268-8.943-.936-72.198-13.492-90.278-1.338-1.926-3.388-4.179-5.49-3.993-1.647.145-3.106-1.073-3.253-2.723s1.073-3.107 2.724-3.253c3.991-.354 7.684 1.849 10.947 6.547 8.66 12.469 12.791 39.991 14.165 51.245 2.16 17.697 2.941 38.487-.185 45.04-6.282 13.165-21.7 19.049-22.354 19.293-.346.129-.7.19-1.05.19z"/></g><path d="m763.377 1255.886c29.199-10.967 56.915-9.249 74.592-1.577l3.502-28.23c-25.938-9.594-56.676-6.782-80.916 9.56l2.821 20.247z" fill="#fff"/><path d="m763.376 1258.886c-.533 0-1.063-.142-1.533-.421-.783-.466-1.313-1.262-1.438-2.165l-2.821-20.247c-.158-1.135.345-2.261 1.295-2.901 24.481-16.504 55.746-20.202 83.634-9.886 1.306.483 2.107 1.801 1.937 3.183l-3.502 28.229c-.117.938-.669 1.767-1.489 2.236-.822.469-1.815.523-2.683.147-15.248-6.618-42.26-9.665-72.344 1.634-.341.128-.698.191-1.055.191zm.413-21.783 2.05 14.71c24.383-8.366 49.859-8.989 69.633-1.733l2.726-21.978c-24.584-8.298-52.715-4.906-74.408 9z" fill="#3375e0"/><path d="m760.556 1235.639-5.661-22.904c26.017-19.177 56.48-23.418 90.275-16.468l-3.698 29.812c-28.464-9.245-56.685-6.445-80.916 9.56z" fill="#fff"/><path d="m760.555 1238.639c-.369 0-.739-.068-1.092-.206-.907-.354-1.587-1.128-1.82-2.075l-5.66-22.904c-.291-1.178.155-2.415 1.132-3.135 25.371-18.701 56.546-24.418 92.659-16.992 1.532.315 2.565 1.755 2.373 3.308l-3.698 29.813c-.11.889-.611 1.681-1.367 2.162-.755.48-1.687.6-2.537.322-28.239-9.172-55.328-5.987-78.336 9.21-.497.328-1.073.497-1.653.497zm-2.262-24.658 4.178 16.905c22.828-13.711 49.108-16.713 76.464-8.729l2.913-23.488c-32.879-6.208-60.257-1.189-83.555 15.312z" fill="#3375e0"/><path d="m290.549 1419.912c-72.525 6.873-123.761-79.883-80.963-140.179 98.979-146.344 214.268-275.305 352.363-371.797 148.069-103.332 313.099-161.398 492.515-169.264 49.658-2.183 91.683 36.303 93.866 85.96 2.263 49.689-36.577 91.788-85.96 93.866-145.51 6.421-277.169 53.202-397.452 137.077-120.006 83.981-219.423 196.876-306.208 324.964-16.088 23.8-41.569 37.459-68.16 39.374z" fill="#fff"/><path d="m282.562 1423.291c-31.878 0-61.422-17.506-78.508-47.071-18.445-31.918-17.263-69.556 3.085-98.223 51.548-76.218 105.987-145.177 161.767-204.905 60.514-64.797 124.885-121.191 191.325-167.615 150.298-104.888 316.537-162.017 494.101-169.802 51.266-2.262 94.742 37.594 96.995 88.825 1.128 24.763-7.515 48.516-24.336 66.879-16.837 18.379-39.741 29.075-64.495 30.117-141.712 6.253-274.901 52.192-395.862 136.54-109.777 76.823-209.689 182.866-305.441 324.186-16.073 23.778-41.73 38.606-70.393 40.681-2.758.26-5.507.389-8.237.389zm775.901-681.707c-1.284 0-2.572.028-3.868.085-176.408 7.734-341.581 64.502-490.93 168.727-128.427 89.737-243.435 211.098-351.595 371.018-19.012 26.786-20.078 61.942-2.821 91.804 17.366 30.05 48.414 46.803 81.017 43.708.023-.002.045-.004.068-.005 26.83-1.932 50.845-15.805 65.89-38.062 96.171-141.938 196.583-248.489 306.975-325.742 60.578-42.243 124.503-75.2 190.001-97.959 66.566-23.13 136.896-36.473 209.039-39.656 23.154-.974 44.577-10.98 60.328-28.175 15.736-17.179 23.822-39.396 22.767-62.558-2.051-46.635-40.642-83.185-86.869-83.185z" fill="#3375e0"/><path d="m257.229 1212.428c107.021-147.685 216.278-262.621 334.696-341.912 67.829-45.417 139.774-81.134 213.837-106.156 78.513-26.526 161.896-41.889 247.824-45.669 60.693-2.668 112.057 44.37 114.725 105.062 2.622 59.644-42.766 110.281-101.936 114.544-1.04.075-2.078.135-3.126.181-127.775 5.609-241.899 43.182-348.92 114.841-96.435 64.572-187.791 157.337-279.287 283.599-56.739 15.45-165.47-60.479-177.812-124.491z" fill="#fff"/><path d="m418.608 1341.961c-22.685 0-50.699-9.596-79.643-27.632-44.977-28.025-78.217-67.801-84.682-101.334-.157-.814.03-1.657.517-2.328 111.801-154.281 221.529-266.361 335.456-342.645 68.048-45.564 140.231-81.398 214.546-106.505 78.772-26.614 162.432-42.032 248.651-45.824 30.154-1.327 59.021 9.17 81.28 29.555 22.26 20.385 35.249 48.218 36.574 78.373 1.301 29.594-8.84 58.064-28.554 80.168-19.677 22.061-46.726 35.378-76.164 37.5-1.067.077-2.133.139-3.211.186-127.186 5.583-240.815 42.983-347.382 114.337-96.137 64.373-187.243 156.899-278.527 282.866-.402.554-.98.955-1.641 1.134-5.288 1.44-11.058 2.148-17.221 2.148zm-158.177-128.839c6.754 31.709 38.652 69.288 81.707 96.115 34.363 21.413 68.298 30.72 91.105 25.049 91.494-126.103 182.904-218.835 279.416-283.459 107.506-71.983 222.142-109.713 350.457-115.346 1.021-.045 2.029-.103 3.041-.176 58.165-4.191 101.719-53.132 99.156-111.42-1.255-28.553-13.555-54.909-34.632-74.211-21.078-19.303-48.409-29.24-76.965-27.986-85.655 3.767-168.757 19.081-246.995 45.514-73.813 24.938-145.519 60.536-213.128 105.806-113.063 75.707-222.053 186.969-333.162 340.114z" fill="#3375e0"/><path d="m358.709 1380.538-57.987 92.808-283.32-177.021s24.816-46.193 66.284-40.383c51.978 7.282 81.953 18.827 122.145 29.544 0 0 14.366-21.284 24.435-35.73 34.103 15.079 9.76 63.455 9.76 63.455 17.506 18.108 79.521 61.55 118.683 67.327z" fill="#a8cffb"/><path d="m300.722 1476.346c-.558 0-1.109-.155-1.59-.456l-283.319-177.02c-1.34-.838-1.801-2.572-1.053-3.964 1.054-1.961 26.297-47.967 69.342-41.935 38.535 5.399 64.707 13.029 92.416 21.107 8.985 2.62 18.257 5.322 28.025 7.957 3.667-5.42 14.979-22.11 23.261-33.994.822-1.178 2.361-1.61 3.675-1.028 8.731 3.861 14.688 10.084 17.703 18.497 6.419 17.911-2.508 40.327-5.546 47.076 18.774 18.352 78.27 59.492 115.511 64.986 1.001.147 1.86.791 2.285 1.709.425.919.357 1.99-.179 2.849l-57.987 92.808c-.422.675-1.094 1.154-1.87 1.333-.223.052-.449.077-.675.077zm-279.243-181.011 278.289 173.877 54.043-86.496c-41.177-8.451-100.018-50.948-115.942-67.42-.886-.916-1.095-2.293-.524-3.432.129-.257 12.809-25.891 6.183-44.345-2.18-6.074-6.301-10.755-12.265-13.943-9.822 14.151-22.809 33.386-22.946 33.588-.715 1.06-2.025 1.548-3.259 1.221-10.595-2.825-20.571-5.734-30.22-8.547-27.495-8.016-53.464-15.586-91.568-20.925-33.528-4.706-56.064 27.247-61.792 36.421z" fill="#3375e0"/><path d="m-15.311 1382.733h334.343v26.752h-334.343z" fill="#3375e0" transform="matrix(-.84806659 -.52988966 .52988966 -.84806659 -459.124 2660.576)"/><path d="m286.546 1499.033c-.558 0-1.109-.156-1.59-.456l-283.546-177.162c-.675-.422-1.154-1.094-1.333-1.87-.179-.775-.043-1.59.378-2.265l14.176-22.687c.877-1.405 2.728-1.832 4.134-.955l283.546 177.162c1.405.878 1.833 2.729.955 4.134l-14.175 22.688c-.422.675-1.094 1.154-1.87 1.333-.223.052-.449.077-.675.077zm-279.412-181.117 278.458 173.983 10.996-17.599-278.458-173.982-10.996 17.599z" fill="#3375e0"/><path d="m225.518 1321.917c-15.233 0-36.364-6.254-45.663-9.269-16.959-5.499-36.142-13.553-40.767-19.149-9.292-11.245-8.129-27.707-8.076-28.402.128-1.652 1.572-2.888 3.224-2.759 1.652.128 2.887 1.572 2.759 3.224-.011.143-1.008 14.765 6.718 24.115 6.313 7.639 65.875 29.576 87.556 25.812 2.31-.401 5.214-1.299 5.935-3.295.563-1.559 2.284-2.366 3.841-1.803 1.558.563 2.365 2.282 1.803 3.841-1.364 3.777-4.914 6.189-10.551 7.168-2.061.358-4.344.518-6.778.518z" fill="#3375e0"/><path d="m175.4 1307.987c-2.361 31.101-15.598 55.512-30.006 68.309l24.124 15.073c19.631-19.479 30.036-48.538 25.432-77.408l-19.55-5.975z" fill="#fff"/><path d="m169.517 1394.369c-.547 0-1.099-.149-1.589-.456l-24.124-15.073c-.802-.501-1.32-1.351-1.399-2.293-.08-.942.29-1.867.997-2.495 12.428-11.039 26.575-34.251 29.007-66.293.069-.909.547-1.736 1.299-2.25s1.696-.658 2.569-.392l19.55 5.975c1.096.335 1.905 1.265 2.085 2.396 4.65 29.158-5.175 59.068-26.281 80.01-.578.574-1.342.871-2.114.871zm-19.236-18.557 18.781 11.735c17.888-18.8 26.666-45.737 23.197-71.271l-14.204-4.341c-2.689 25.639-12.86 49.003-27.774 63.877z" fill="#3375e0"/><path d="m194.95 1313.961 23.156 4.519c6.426 31.675-2.566 61.088-23.111 88.807l-25.477-15.918c20.38-21.917 29.734-48.689 25.432-77.408z" fill="#fff"/><path d="m194.993 1410.287c-.545 0-1.095-.148-1.588-.456l-25.477-15.918c-.759-.475-1.267-1.263-1.384-2.151-.117-.887.167-1.781.777-2.437 20.219-21.743 28.747-47.65 24.662-74.92-.145-.964.188-1.938.893-2.612.704-.673 1.689-.965 2.649-.777l23.156 4.519c1.19.232 2.124 1.159 2.365 2.348 6.267 30.889-1.687 61.57-23.641 91.189-.585.79-1.491 1.214-2.412 1.214zm-20.85-19.566 20.073 12.541c19.484-27.198 26.474-54.143 21.329-82.226l-17.092-3.335c2.813 26.481-5.54 51.58-24.31 73.02z" fill="#3375e0"/><path d="m1070.53 423.698c46.657-6.269 116.509 11.904 116.509 11.904l104.118 24.18c28.014 20.489 59.774 71.414 67.917 109.4 14.037 65.479-124.451 301.754-185.967 350.154-65.067-2.801-96.592-105.017-113.419-150.074-17.342-46.434-54.712-89.127-94.665-92.49 36.843-17.959 55.858-71.421 67.592-149.866" fill="#a8cffb"/><path d="m1173.107 922.336c-.043 0-.086 0-.129-.003-26.97-1.161-51.449-19.045-72.759-53.156-17.739-28.396-30.045-62.317-39.031-87.086-1.537-4.237-2.971-8.19-4.312-11.779-15.377-41.172-50.759-87.07-92.106-90.551-1.345-.113-2.449-1.111-2.697-2.438s.421-2.656 1.635-3.248c32.718-15.948 53.055-61.474 65.94-147.613.245-1.638 1.772-2.773 3.41-2.523 1.639.245 2.769 1.772 2.523 3.411-12.207 81.605-31.373 127.863-61.586 147.752 40.113 8.758 73.556 53.092 88.502 93.11 1.347 3.606 2.787 7.577 4.331 11.833 8.895 24.517 21.076 58.094 38.479 85.953 20.182 32.305 42.051 48.766 66.818 50.282 29.025-23.429 78.024-91.796 119.671-167.069 46.395-83.855 70.448-150.92 64.343-179.4-7.914-36.918-38.788-86.828-66.266-107.247l-103.515-24.04c-.77-.199-69.9-17.969-115.431-11.853-1.648.226-3.151-.932-3.373-2.574-.221-1.642.932-3.152 2.574-3.373 46.704-6.276 114.788 11.226 117.663 11.974l104.042 24.161c.395.092.766.262 1.093.501 28.582 20.905 60.862 72.864 69.079 111.192 3.433 16.016-1.481 41.992-14.607 77.206-11.471 30.772-28.882 67.55-50.353 106.357-43.087 77.875-92.148 146.023-122.085 169.578-.53.417-1.184.642-1.855.642z" fill="#3375e0"/><path d="m1208.679 432.083 104.362 11.006c25.914 2.733 40.401-12.108 30.625-33.331l-21.792-47.31-174.731 1.053 16.588 36.012c7.441 16.155 27.16 30.694 44.948 32.57z" fill="#3375e0"/><path d="m1319.01 446.412c-2.028 0-4.125-.112-6.284-.34l-104.362-11.006c-18.601-1.961-39.402-17.027-47.357-34.299l-16.588-36.012c-.427-.926-.354-2.005.193-2.865s1.494-1.383 2.514-1.39l174.73-1.052c1.137-.031 2.25.675 2.742 1.745l21.792 47.31c4.673 10.145 4.437 19.651-.667 26.768-5.175 7.217-14.724 11.142-26.713 11.142zm-110.017-17.313 104.362 11.006c12.716 1.34 22.733-1.696 27.492-8.332 3.792-5.287 3.825-12.66.094-20.761l-20.983-45.553-168.143 1.012 14.641 31.786c7.036 15.274 26.118 29.11 42.537 30.842z" fill="#3375e0"/><path d="m1283.683 385.814c-.088 13.302 6.653 29.19 12.84 36.448 0 0-33.123 1.959-34.822-18.407z" fill="#a8cffb"/><path d="m1294.032 425.321c-8.431 0-33.687-1.643-35.32-21.216-.082-.982.324-1.943 1.086-2.568l21.982-18.041c.899-.74 2.145-.889 3.195-.389s1.716 1.563 1.708 2.727c-.081 12.42 6.229 27.569 12.124 34.482.738.866.923 2.075.477 3.123-.446 1.047-1.446 1.751-2.583 1.818-.22.013-1.184.064-2.669.064zm-29.135-20.208c2.162 11.208 17.291 13.626 25.755 14.093-4.465-7.223-8.418-17.507-9.606-27.347l-16.148 13.253z" fill="#3375e0"/><path d="m1190.827 462.825-9.489-68.187 89.362-12.436 9.489 68.187 10.967 9.392c-31.573 34.34-107.286 70.355-122.486 27.955-9.692-27.034 18.368-52.135 18.368-52.135l3.788 27.223z" fill="#fff"/><path d="m1198.917 509.974c-3.304 0-6.462-.286-9.438-.888-11.526-2.332-19.698-9.364-23.632-20.337-9.186-25.625 12.515-48.915 18.007-54.268l-5.487-39.43c-.229-1.641.917-3.157 2.559-3.385l89.362-12.436c.788-.112 1.587.098 2.222.578s1.053 1.192 1.163 1.98l9.331 67.062 10.104 8.653c.618.53.995 1.288 1.044 2.1.048.813-.235 1.61-.787 2.209-22.558 24.535-64.421 48.16-94.448 48.162zm-14-67.859c-7.059 7.985-20.078 26.04-13.421 44.61 3.231 9.016 9.683 14.561 19.173 16.48 26.466 5.355 71.654-18.027 96.143-43.195l-8.573-7.342c-.557-.477-.919-1.14-1.021-1.865l-9.074-65.216-83.42 11.609 9.076 65.216c.229 1.641-.917 3.157-2.559 3.385-1.638.227-3.156-.917-3.385-2.558l-2.939-21.125z" fill="#3375e0"/><path d="m1235.808 422.448c-19.323 9.28-41.479 14.864-63.369 12.912-38.824-3.462-67.985-25.391-75.632-61.287-10.42-48.911 20.317-139.248 76.901-169.135 77.261-40.809 159.075 49.526 139.759 122.127-6.942 26.092-24.675 51.309-40.891 68.612l2.062 14.816" fill="#fff"/><path d="m1181.245 438.747c-3.057 0-6.082-.132-9.072-.399-41.323-3.685-70.595-27.479-78.3-63.651-5.293-24.845-.125-60.663 13.487-93.476 15.29-36.857 38.355-64.891 64.947-78.937 33.05-17.456 69.979-13.154 101.316 11.799 35.472 28.244 53.047 75.02 42.742 113.752-8.274 31.102-30.444 57.805-40.622 68.839l1.865 13.404c.229 1.641-.917 3.157-2.559 3.385-1.635.227-3.156-.917-3.385-2.558l-2.062-14.816c-.125-.898.163-1.804.783-2.465 9.349-9.976 31.979-36.506 40.18-67.332 9.712-36.5-7.017-80.711-40.681-107.516-29.39-23.4-63.934-27.478-94.776-11.187-25.359 13.395-47.452 40.36-62.208 75.931-13.171 31.75-18.214 66.208-13.16 89.927 7.127 33.458 34.403 55.486 72.964 58.924 24.752 2.207 47.272-5.649 61.804-12.628 1.494-.717 3.286-.088 4.003 1.405.718 1.494.088 3.286-1.405 4.003-18.657 8.961-37.785 13.596-55.862 13.596z" fill="#3375e0"/><path d="m1211.53 315.694c-6.792-5.628-14.343-9.093-23.643-12.856-5.962-2.413-4.367-9.426 5.208-10.911 9-1.396 24.032 6.33 27.222 15.151 3.328 9.202-3.244 13.21-8.788 8.617z" fill="#a8cffb"/><path d="m1216.251 320.608c-2.217 0-4.558-.882-6.636-2.604-6.191-5.13-13.068-8.426-22.854-12.386-3.681-1.489-5.723-4.517-5.331-7.902.4-3.454 3.554-7.567 11.205-8.754 10.054-1.563 26.653 6.45 30.503 17.094 2.435 6.731.34 11.212-2.433 13.162-1.324.932-2.857 1.39-4.455 1.39zm-2.807-7.223c1.408 1.167 2.938 1.54 3.812.926.987-.694 1.445-2.885.241-6.213-2.742-7.581-16.603-14.344-23.94-13.207-4.271.663-6.048 2.508-6.165 3.516-.102.881 1.216 1.485 1.621 1.65 10.332 4.18 17.642 7.701 24.432 13.327z" fill="#3375e0"/><path d="m1153.145 289.156c-8.331-2.897-16.618-3.503-26.646-3.776-6.43-.175-7.388-7.303 1.064-12.044 7.943-4.455 24.728-2.474 30.801 4.674 6.336 7.457 1.58 13.51-5.22 11.146z" fill="#a8cffb"/><path d="m1156.037 292.673c-1.244 0-2.554-.224-3.877-.684-7.593-2.641-15.188-3.324-25.742-3.611-3.969-.108-6.941-2.231-7.758-5.54-.833-3.375.683-8.332 7.436-12.12 8.877-4.976 27.226-3.277 34.556 5.348 4.635 5.455 4.239 10.385 2.324 13.181-1.526 2.228-4.057 3.425-6.938 3.425zm-1.907-6.35c1.729.6 3.292.414 3.895-.465.683-.996.345-3.208-1.946-5.905-5.222-6.145-20.578-7.628-27.048-4-3.77 2.114-4.789 4.464-4.546 5.449.213.861 1.658.967 2.097.979 11.141.303 19.222 1.046 27.549 3.942z" fill="#3375e0"/><ellipse cx="1135.206" cy="305.221" fill="#3375e0" rx="6.834" ry="5.74" transform="matrix(.37109233 -.92859597 .92859597 .37109233 430.521 1246.11)"/><ellipse cx="1192.356" cy="325.261" fill="#3375e0" rx="6.834" ry="5.74" transform="matrix(.37109233 -.92859597 .92859597 .37109233 447.853 1311.782)"/><path d="m1205.069 361.214c-1.689 18.472-25.757 22.281-36.604 10.624z" fill="#fff"/><path d="m1184.567 381.501c-6.962 0-13.709-2.688-18.298-7.618-.709-.763-.973-1.838-.695-2.842s1.055-1.792 2.056-2.083l36.604-10.624c.952-.277 1.98-.064 2.745.566.765.631 1.169 1.6 1.078 2.587-.811 8.869-6.205 15.639-14.8 18.575-2.838.969-5.783 1.438-8.689 1.438zm-9.622-8.419c4.768 2.588 10.899 3.173 16.372 1.302 4.664-1.593 8.031-4.722 9.686-8.865z" fill="#3375e0"/><path d="m1277.98 350.979c-1.509-21.752-5.005-36.153-9.816-48.24-8.025-20.165-19.87-66.118-61.398-80.038-36.359-12.188-59.699 2.322-59.699 2.322s64.074-69.978 129.345-19.874 55.001 118.015 31.092 155.991l-29.525-10.161z" fill="#a8cffb"/><path d="m1307.503 364.141c-.325 0-.654-.053-.976-.164l-29.524-10.161c-1.139-.392-1.933-1.428-2.017-2.629-1.347-19.424-4.311-34.024-9.609-47.338-.972-2.44-2.007-5.277-3.103-8.28-7.946-21.775-21.246-58.219-56.462-70.023-34.448-11.547-56.945 1.892-57.168 2.03-1.273.782-2.935.51-3.887-.645-.953-1.153-.913-2.831.097-3.934.671-.732 16.705-18.067 41.145-29.421 32.713-15.196 64.608-12.017 92.24 9.193 29.784 22.864 47.125 52.134 50.148 84.646 2.378 25.574-4.309 53.028-18.345 75.324-.562.892-1.531 1.402-2.54 1.402zm-26.674-15.354 25.376 8.733c19.687-32.989 34.109-99.537-31.619-149.992-26.063-20.007-54.962-22.896-85.896-8.586-11.559 5.347-21.275 12.228-28.169 17.843 10.847-2.555 27.084-3.671 47.198 3.071 37.955 12.722 51.875 50.865 60.192 73.655 1.08 2.961 2.102 5.758 3.04 8.118 5.354 13.454 8.421 28.065 9.877 47.157z" fill="#3375e0"/><path d="m1125.647 252.252c-14.475 2.928-39.054-1.333-34.916-28.928 16.924 16.064 38.267-7.786 46.963 12.118-4.997 6.444-12.047 16.81-12.047 16.81z" fill="#a8cffb"/><path d="m1117.537 256.038c-7.883 0-16.695-2.032-22.849-7.882-4.278-4.066-8.952-11.753-6.923-25.278.166-1.106.934-2.028 1.991-2.392 1.054-.363 2.229-.11 3.041.661 7.114 6.753 14.938 5.404 23.22 3.971 8.908-1.541 19.007-3.283 24.426 9.122.439 1.006.295 2.172-.378 3.04-4.882 6.294-11.867 16.556-11.938 16.659-.44.648-1.117 1.098-1.886 1.253-2.606.527-5.584.846-8.705.846zm8.11-3.786h.01zm-32.378-23.257c-.045 6.29 1.813 11.258 5.553 14.813 6.178 5.873 16.804 7.093 25.054 5.72 1.75-2.551 6.381-9.245 10.309-14.437-3.375-6.105-8.383-5.575-17.146-4.06-7.121 1.23-15.704 2.713-23.77-2.036z" fill="#3375e0"/><path d="m1206.565 226.883c-4.551 14.307-2.934 30.212 9.3 36.146 13.316 6.459 16.884 24.996 16.884 24.996s18.861-20.557 4.987-42.471c-8.194-6.985-21.174-13.622-31.171-18.67z" fill="#a8cffb"/><path d="m1232.75 291.025c-.272 0-.548-.037-.818-.114-1.09-.309-1.913-1.206-2.128-2.319-.032-.167-3.472-17.152-15.247-22.863-15.023-7.287-15.234-25.97-10.85-39.754.266-.838.887-1.517 1.697-1.857.81-.341 1.728-.308 2.514.088 9.184 4.638 23.062 11.647 31.765 19.065.229.195.428.424.589.679 14.93 23.582-5.106 45.881-5.311 46.104-.577.628-1.383.972-2.211.972zm-24.276-59.812c-2.76 11.603-1.151 24.338 8.701 29.117 9.547 4.63 14.482 14.567 16.785 21.05 4.273-6.737 10.02-19.945 1.479-33.838-7.228-6.047-18.393-11.966-26.966-16.329z" fill="#3375e0"/><path d="m1255.932 272.341c.416 15.905-5.593 29.621-15.037 37.214 0 0 28.012 5.338 39.731-1.623 11.72-6.96-11.498-40.306-24.694-35.592z" fill="#a8cffb"/><path d="m1261.697 314.501c-10.671 0-20.664-1.866-21.363-1.999-1.149-.219-2.066-1.086-2.35-2.221-.283-1.135.12-2.331 1.031-3.064 9.094-7.312 14.297-20.32 13.918-34.798-.034-1.296.769-2.468 1.989-2.904 10.675-3.812 23.767 9.943 29.122 21.335 4.268 9.075 3.563 16.425-1.886 19.662-5.173 3.072-12.984 3.989-20.462 3.989zm-14.357-6.983c9.577 1.217 24.698 2.025 31.754-2.165 2.962-1.759 1.694-7.326-.479-11.95-4.613-9.812-13.793-18.185-19.671-18.499-.212 12.782-4.403 24.447-11.604 32.614z" fill="#3375e0"/><path d="m1302.91 377.086c-4.127-68.074-77.903-170.46-155.842-152.063 0 0 21.347-52.262 74.375-59.81 53.379-7.598 104.211 19.056 128.469 85.154 16.974 46.248-14.07 115.99-47.002 126.719z" fill="#3375e0"/><path d="m1302.91 380.086c-.595 0-1.185-.177-1.688-.52-.768-.522-1.25-1.372-1.306-2.298-2.684-44.259-34.518-99.795-74.05-129.181-25.771-19.157-52.782-26.122-78.108-20.144-1.096.256-2.239-.116-2.97-.97-.729-.854-.922-2.044-.497-3.084.226-.552 5.659-13.676 17.798-27.889 11.253-13.175 30.611-29.726 58.932-33.757 59.363-8.452 108.594 24.108 131.708 87.091 10.756 29.308 2.397 64.856-9.012 88.351-10.727 22.091-25.262 37.492-39.877 42.254-.304.099-.617.147-.93.147zm-137.211-160.231c21.192 0 42.903 7.923 63.746 23.417 39.602 29.438 71.727 84.404 76.134 129.529 11.771-5.528 23.784-19.292 32.741-37.737 13.869-28.563 17.232-60.621 8.775-83.663-22.066-60.128-68.878-91.245-125.229-83.218-40.806 5.808-62.476 39.566-69.465 52.728 4.4-.705 8.838-1.056 13.298-1.056z" fill="#3375e0"/><path d="m1181.418 210.943c8.213 1.411 44.358 10.926 58.959 24.687 0 0 9.301-27.432-15.612-37.334-24.912-9.902-43.348 12.647-43.348 12.647z" fill="#a8cffb"/><path d="m1240.377 238.631c-.756 0-1.494-.286-2.058-.817-13.865-13.067-48.77-22.43-57.409-23.914-1.052-.181-1.929-.907-2.303-1.906-.373-1-.188-2.123.488-2.949.197-.242 20.13-24.131 46.778-13.535 21.8 8.665 20.878 30.664 17.344 41.085-.327.967-1.125 1.701-2.116 1.948-.239.06-.483.089-.725.089zm-52.982-29.451c11.712 2.846 36.771 10.242 51.195 21.054 1.283-7.54 1.518-22.611-14.933-29.15-16.476-6.547-30.048 2.581-36.263 8.096z" fill="#3375e0"/><path d="m1168.107 222.886c-7.417-9.707-16.092-11.627-27.091-9.929s-22.919-2.135-26.464-9.248c0 0-5.703 31.346 16.338 33.228 23.26 1.985 37.217-14.051 37.217-14.051z" fill="#a8cffb"/><path d="m1134.911 240.11c-1.391 0-2.814-.059-4.276-.183-6.045-.516-10.826-3.023-14.212-7.45-8.108-10.604-4.96-28.545-4.821-29.304.23-1.271 1.25-2.251 2.529-2.433 1.279-.181 2.531.477 3.107 1.632 2.861 5.744 13.327 9.166 23.319 7.621 13.286-2.052 22.516 1.365 29.934 11.072.865 1.132.814 2.717-.121 3.792-.574.66-13.546 15.253-35.459 15.253zm-18.001-29.253c-.148 5.424.465 12.997 4.287 17.985 2.348 3.065 5.602 4.735 9.947 5.106 16.853 1.436 28.602-7.386 32.901-11.27-5.712-6.356-12.446-8.321-22.572-6.756-9.339 1.439-18.635-.654-24.563-5.065z" fill="#3375e0"/><path d="m1271.69 357.466c7.43-10.722 21.617-15.092 34.057-9.728 14.188 6.117 20.73 22.577 14.613 36.765s-22.577 20.73-36.765 14.613c-5.007-2.159-9.062-5.606-11.945-9.787" fill="#fff"/><path d="m1294.628 404.403c-4.086 0-8.235-.813-12.22-2.531-5.356-2.31-9.931-6.058-13.228-10.839-.94-1.364-.598-3.232.767-4.173s3.232-.597 4.173.767c2.656 3.853 6.344 6.874 10.663 8.736 12.644 5.452 27.37-.4 32.822-13.047 2.642-6.125 2.739-12.914.274-19.113-2.464-6.199-7.194-11.068-13.32-13.709-10.883-4.693-23.668-1.041-30.404 8.681-.942 1.361-2.811 1.702-4.175.757-1.361-.944-1.7-2.813-.757-4.174 8.356-12.061 24.218-16.594 37.711-10.774 7.598 3.275 13.465 9.314 16.521 17.002 3.056 7.689 2.935 16.107-.341 23.705-5.045 11.7-16.488 18.711-28.487 18.711z" fill="#3375e0"/><path d="m1304.549 371.436-16.396 8.652" fill="#fff"/><path d="m1288.156 383.089c-1.077 0-2.118-.582-2.656-1.601-.773-1.465-.212-3.28 1.253-4.053l16.396-8.652c1.466-.771 3.28-.211 4.054 1.253.773 1.465.212 3.28-1.253 4.053l-16.396 8.652c-.446.235-.926.347-1.397.347z" fill="#3375e0"/><path d="m1300.406 385.372-7.916-19.135" fill="#fff"/><path d="m1300.407 388.372c-1.178 0-2.295-.698-2.773-1.854l-7.916-19.134c-.633-1.531.095-3.286 1.626-3.919 1.53-.635 3.285.095 3.919 1.625l7.916 19.134c.633 1.531-.095 3.286-1.626 3.919-.375.155-.764.229-1.146.229z" fill="#3375e0"/><path d="m1335.383 608.739c-4.392 23.155-13.883 46.595-22.595 63.122-39.333 74.487-121.354 121.084-205.393 126.403-97.705 11.807-197.1-50.319-259.999-110.344-35.881-32.781-87.897-88.219-116.408-136.565-14.028-23.786-6.116-54.441 17.67-68.467 23.786-14.029 54.439-6.116 68.466 17.67 29.502 56.373 166.695 191.013 234.98 195.518 73.579 13.819 153.774-19.373 178.683-84.833" fill="#fff"/><path d="m1082.764 802.73c-37.996.001-78.145-10.046-119.719-29.998-51.739-24.83-92.575-58.646-117.721-82.644-35.984-32.875-88.239-88.575-116.921-137.212-7.191-12.194-9.203-26.459-5.666-40.167 3.538-13.708 12.202-25.217 24.397-32.408 12.192-7.192 26.456-9.206 40.166-5.666 13.707 3.538 25.216 12.202 32.407 24.396.026.043.051.088.074.133 29.631 56.621 166.35 189.55 232.519 193.915.12.008.238.023.356.045 75.237 14.13 152.249-22.307 175.326-82.952.589-1.548 2.32-2.326 3.871-1.737 1.548.589 2.326 2.322 1.736 3.871-12.079 31.745-37.881 57.958-72.649 73.809-33.457 15.254-72.238 19.846-109.217 12.939-42.016-2.9-101.75-50.751-133.646-79.045-45.932-40.746-88.508-89.25-103.577-117.994-6.38-10.781-16.569-18.439-28.701-21.57-12.155-3.137-24.804-1.353-35.618 5.024s-18.498 16.583-21.636 28.74c-3.137 12.156-1.353 24.806 5.024 35.62 28.345 48.065 80.121 103.235 115.848 135.875 30.738 29.333 140.016 123.801 257.615 109.581.058-.007.114-.012.171-.016 86.116-5.449 165.771-54.44 202.929-124.809 4.925-9.342 16.958-34.116 22.301-62.28.308-1.628 1.873-2.699 3.507-2.388 1.627.309 2.696 1.878 2.388 3.506-5.494 28.961-17.837 54.378-22.888 63.962-19.204 36.368-49.302 67.596-87.039 90.311-36.462 21.947-78.209 34.976-120.732 37.681-8.189.986-16.498 1.478-24.906 1.479z" fill="#3375e0"/><path d="m1359.079 569.18c18.039 65.016-33.854 164.389-86.395 200.927-42.684 34.488-100.194 54.748-156.807 58.514-126.053 13.082-235.123-58.57-323.885-152.813-71.181-77.291 41.868-185.314 115.809-110.396 89.418 93.433 173.103 138.264 265.329 79.448 12.012-9.55 20.481-21.257 25.33-34.969" fill="#a8cffb"/><path d="m1086.406 833.148c-49.471 0-99.069-12.74-147.837-38.023-49.692-25.763-99.743-65.215-148.761-117.259-17.125-18.595-25.117-40.28-23.135-62.735 1.758-19.914 11.263-39.021 26.765-53.8 15.494-14.772 35.015-23.346 54.968-24.142 22.496-.892 43.781 8.134 61.53 26.117 49.173 51.38 90.625 81.906 130.483 96.099 45.002 16.024 87.843 10.468 130.966-16.988 11.455-9.142 19.613-20.42 24.247-33.524.552-1.563 2.265-2.383 3.828-1.828 1.563.552 2.381 2.266 1.828 3.828-5.031 14.228-13.877 26.447-26.291 36.317-.082.065-.166.125-.254.181-44.833 28.592-89.431 34.37-136.338 17.666-40.771-14.519-82.961-45.522-132.771-97.57-36.616-37.098-81.688-26.955-108.056-1.814-26.398 25.169-38.717 69.734-3.38 108.104 105.437 111.947 213.572 163.048 321.369 151.861.037-.004.073-.007.11-.01 57.84-3.848 114.379-24.935 155.12-57.854.057-.045.114-.088.173-.129 52.85-36.753 102.554-135.182 85.218-197.662-.443-1.597.492-3.25 2.089-3.693 1.59-.445 3.249.492 3.692 2.088 8.542 30.788 2.542 70.99-16.896 113.2-17.73 38.501-44.111 72.483-70.589 90.93-41.661 33.628-99.369 55.168-158.355 59.103-9.898 1.025-19.808 1.537-29.725 1.537z" fill="#3375e0"/><g clip-path="url(#b)" fill="#fff"><path d="m1328.934 703.569c-17.189 0-36.103-2.439-55.972-7.365-45.27-11.222-85.387-32.955-107.314-58.136-7.254-8.33-6.381-20.963 1.949-28.217s20.964-6.38 28.217 1.949c16.487 18.934 49.736 36.399 86.772 45.58 36.338 9.008 69.042 8.195 85.354-2.122 9.335-5.903 21.69-3.124 27.594 6.211 5.905 9.335 3.124 21.689-6.211 27.594-15.218 9.625-36.077 14.505-60.389 14.505z"/><path d="m1279.132 808.114c-1.404 0-2.83-.149-4.259-.459-28.942-6.277-62.271-26.341-93.846-56.497-30.698-29.319-55.656-64.104-70.273-97.948-4.38-10.14.29-21.911 10.43-26.291 10.14-4.381 21.911.29 26.291 10.43 25.377 58.753 90.141 121.295 135.877 131.214 10.795 2.341 17.647 12.99 15.307 23.785-2.031 9.366-10.317 15.765-19.526 15.765z"/><path d="m772.07 720.423c-1.195 0-2.379-.025-3.559-.077-11.035-.479-19.593-9.813-19.113-20.849.479-11.035 9.791-19.62 20.85-19.113 24.991 1.086 60.001-19.042 85.135-48.943 22.368-26.61 32.328-54.934 27.326-77.708-2.37-10.789 4.455-21.455 15.243-23.825 10.792-2.369 21.456 4.455 23.825 15.244 7.688 35.001-5.352 75.833-35.774 112.027-32.582 38.762-76.885 63.242-113.933 63.244z"/><path d="m1000.879 855.615c-2.518 0-5.076-.478-7.551-1.488-10.227-4.174-15.134-15.849-10.959-26.075 17.634-43.204 27.346-109.588 27.346-186.925 0-11.046 8.954-20 20-20s20 8.954 20 20c0 58.291-5.259 140.661-30.313 202.041-3.164 7.751-10.638 12.447-18.523 12.447z"/><path d="m875.705 808.912c-6.869 0-13.556-3.541-17.277-9.897-5.581-9.532-2.379-21.783 7.152-27.365 20.503-12.006 42.198-38.896 59.522-73.774 16.563-33.343 27.109-69.931 28.214-97.872.437-11.036 9.711-19.628 20.774-19.194 11.037.437 19.631 9.737 19.194 20.774-2.706 68.444-49.251 170.478-107.492 204.583-3.176 1.859-6.655 2.745-10.088 2.745z"/><path d="m1137.116 858.797c-6.916 0-13.642-3.591-17.345-10.014-28.192-48.896-46.689-119.396-54.979-209.542-1.012-11 7.085-20.736 18.085-21.748 10.979-1.013 20.735 7.085 21.747 18.084 7.757 84.356 24.513 149.366 49.8 193.225 5.518 9.569 2.232 21.799-7.336 27.316-3.147 1.814-6.583 2.677-9.972 2.677z"/></g><path d="m1086.406 833.148c-49.471 0-99.069-12.74-147.837-38.023-49.692-25.763-99.743-65.215-148.761-117.259-17.125-18.595-25.117-40.28-23.135-62.735 1.758-19.914 11.263-39.021 26.765-53.8 15.494-14.772 35.015-23.346 54.968-24.142 22.496-.892 43.781 8.134 61.53 26.117 49.173 51.38 90.625 81.906 130.483 96.099 45.002 16.024 87.843 10.468 130.966-16.988 11.455-9.142 19.613-20.42 24.247-33.524.552-1.563 2.265-2.383 3.828-1.828 1.563.552 2.381 2.266 1.828 3.828-5.031 14.228-13.877 26.447-26.291 36.317-.082.065-.166.125-.254.181-44.833 28.592-89.431 34.37-136.338 17.666-40.771-14.519-82.961-45.522-132.771-97.57-36.616-37.098-81.688-26.955-108.056-1.814-26.398 25.169-38.717 69.734-3.38 108.104 105.437 111.947 213.572 163.048 321.369 151.861.037-.004.073-.007.11-.01 57.84-3.848 114.379-24.935 155.12-57.854.057-.045.114-.088.173-.129 52.85-36.753 102.554-135.182 85.218-197.662-.443-1.597.492-3.25 2.089-3.693 1.59-.445 3.249.492 3.692 2.088 8.542 30.788 2.542 70.99-16.896 113.2-17.73 38.501-44.111 72.483-70.589 90.93-41.661 33.628-99.369 55.168-158.355 59.103-9.898 1.025-19.808 1.537-29.725 1.537z" fill="#3375e0"/><path d="m730.988 551.353c-8.162-15.563-43.345-54.865-47.587-73.445-4.276-18.729 24.091-14.6 32.764.34 6.506 11.208 19.432 28.568 19.432 28.568" fill="#fff"/><path d="m730.991 554.354c-1.08 0-2.123-.584-2.66-1.607-2.949-5.625-9.907-14.928-17.272-24.778-13.025-17.418-27.789-37.161-30.582-49.392-2.355-10.318 3.871-13.984 6.657-15.082 8.825-3.477 24.898 1.659 31.626 13.248 6.344 10.929 19.115 28.11 19.243 28.283.989 1.329.714 3.208-.614 4.198-1.328.988-3.208.715-4.198-.615-.532-.714-13.104-17.626-19.62-28.854-4.92-8.477-17.817-13.205-24.238-10.677-1.104.435-4.468 1.76-3.006 8.163 2.51 10.992 17.496 31.032 29.537 47.135 7.84 10.483 14.609 19.537 17.782 25.584.77 1.467.203 3.281-1.264 4.05-.444.233-.922.344-1.391.344z" fill="#3375e0"/><path d="m735.018 515.555c-7.898-9.553-24.465-37.991-34.888-59.5-7.329-15.125 15.918-24 28.943-6.306 15.684 21.304 22.756 38.994 22.756 38.994" fill="#fff"/><path d="m735.02 518.554c-.864 0-1.721-.371-2.314-1.088-7.916-9.576-24.4-37.662-35.275-60.103-3.432-7.082-1.565-14.122 4.754-17.935 7.726-4.662 20.622-3.252 29.306 8.542 15.73 21.368 22.831 38.922 23.125 39.659.615 1.538-.133 3.283-1.671 3.898-1.537.615-3.283-.132-3.899-1.67-.069-.174-7.143-17.623-22.387-38.331-6.983-9.485-16.703-9.779-21.374-6.962-3.633 2.192-4.527 5.903-2.454 10.182 10.52 21.708 26.964 49.779 34.501 58.896 1.056 1.277.876 3.168-.401 4.224-.559.462-1.236.688-1.909.688z" fill="#3375e0"/><path d="m779.236 483.643c-3.95-17.581-2.117-26.211 1.583-35.695 5.708-14.629 19.127-16.107 23.097-4.651 3.97 11.455 4.334 48.431 19.671 68.246" fill="#fff"/><path d="m823.589 514.543c-.896 0-1.783-.4-2.374-1.164-11.236-14.517-14.672-37.159-17.18-53.69-.998-6.574-1.859-12.251-2.954-15.41-1.208-3.487-3.521-5.518-6.345-5.572-.037 0-.074-.001-.111-.001-3.246 0-8.031 2.695-11.012 10.333-3.151 8.078-5.437 16.208-1.451 33.947.363 1.617-.652 3.222-2.27 3.585-1.61.359-3.221-.653-3.584-2.27-3.961-17.628-2.453-26.76 1.715-37.443 3.416-8.754 9.751-14.152 16.579-14.152.083 0 .165 0 .249.002 5.402.104 9.851 3.695 11.899 9.606 1.274 3.679 2.131 9.326 3.216 16.474 2.41 15.882 5.71 37.633 15.992 50.918 1.015 1.311.774 3.195-.536 4.209-.546.423-1.192.627-1.834.627z" fill="#3375e0"/><path d="m748.852 493.491c-6.775-12.34-19.768-53.686-24.09-64.075-5.549-13.338 19.585-21.628 32.269 3.988 8.074 16.305 29.132 54.92 29.132 54.92" fill="#fff"/><path d="m748.855 496.491c-1.06 0-2.087-.563-2.633-1.557-4.53-8.251-11.569-28.557-17.226-44.873-2.968-8.558-5.529-15.949-7.004-19.494-2.581-6.204-.035-12.515 6.19-15.348 9.176-4.174 23.347.313 31.536 16.852 7.954 16.065 28.868 54.43 29.078 54.815.793 1.455.257 3.277-1.197 4.07-1.455.792-3.277.258-4.07-1.197-.211-.387-21.181-38.855-29.188-55.026-7.309-14.759-18.397-16.451-23.675-14.053-1.24.564-5.133 2.78-3.136 7.582 1.545 3.713 4.135 11.183 7.134 19.833 5.582 16.103 12.529 36.143 16.816 43.95.797 1.452.267 3.276-1.187 4.074-.458.251-.952.371-1.44.371z" fill="#3375e0"/><path d="m831.293 522.771c-12.426 22.255-34.376 45.957-77.92 61.981 6.401 8.528 13.431 17.404 20.923 26.536 42.213-12.156 67.745-35.204 78.505-61.511-7.118-7.929-14.269-17.093-21.507-27.005z" fill="#a8cffb"/><path d="m774.296 614.288c-.884 0-1.74-.392-2.319-1.097-7.98-9.727-14.851-18.44-21.003-26.638-.569-.758-.746-1.741-.478-2.65.269-.91.951-1.638 1.841-1.966 35.981-13.241 60.951-33.072 76.337-60.628.498-.893 1.417-1.47 2.437-1.532 1.036-.057 2.002.4 2.605 1.226 7.972 10.917 14.944 19.673 21.316 26.77.769.856.979 2.076.544 3.14-11.985 29.304-40.557 51.77-80.45 63.258-.274.079-.554.117-.83.117zm-16.113-28.148c5.142 6.757 10.796 13.904 17.175 21.708 36.314-10.886 62.452-31.214 73.94-57.495-5.412-6.136-11.241-13.417-17.711-22.125-15.666 25.832-39.749 44.829-73.404 57.911z" fill="#3375e0"/><path d="m1301.371 566.659c-.786 0-1.572-.308-2.161-.919-1.149-1.194-1.113-3.093.08-4.242 15.876-15.287 41.281-19.935 55.053-14.681 1.548.59 2.324 2.324 1.733 3.872-.59 1.548-2.323 2.324-3.872 1.733-11.803-4.502-34.728-.107-48.752 13.397-.582.56-1.332.839-2.081.839z" fill="#3375e0"/><path d="m1044.534 459.339c-.375 0-.756-.071-1.125-.22-1.536-.622-2.276-2.371-1.654-3.907 4.412-10.898 15.145-26.082 27.118-34.015 1.381-.917 3.244-.537 4.158.844.915 1.381.537 3.243-.844 4.158-10.956 7.259-20.806 21.223-24.872 31.265-.472 1.167-1.596 1.875-2.781 1.875z" fill="#3375e0"/></svg>