<svg xmlns="http://www.w3.org/2000/svg" viewBox="0 0 3000 3000" width="3000" height="3000"><g transform="translate(20.0 117.5) rotate(0.0 1476.25 1356.25) scale(1.773215763572833 1.7736525144998136)"><svg width="1665.054" height="1529.33" viewBox="0 0 1665.054 1529.33"><path clip-rule="evenodd" d="m1315.448 119.634 17.204 131.697 112.903 20.064-112.903 20.067-17.204 131.698-17.2-131.698-112.904-20.067 112.903-20.064z" fill="#b4b4fc" fill-rule="evenodd"/><path clip-rule="evenodd" d="M308.169 202.152h1229.594v1177.599H308.169z" fill="#53f" fill-rule="evenodd"/><path clip-rule="evenodd" d="M1051.747 0c-166.319 169.36-163.853 441.483 5.507 607.803s441.482 163.853 607.8-5.509L1511.73 451.722c-83.16 84.68-219.221 85.913-303.902 2.753-84.68-83.16-85.913-219.22-2.753-303.901z" fill="#cefc4f" fill-rule="evenodd"/><path d="M261.66 1319.987c-4.626 0-9.293-.277-13.999-.848-63.347-7.673-108.641-65.452-100.97-128.799 7.673-63.348 65.452-108.649 128.8-100.969 63.347 7.673 108.64 65.452 100.968 128.8-7.102 58.64-57.15 101.816-114.799 101.816zm-.164-226.963c-55.412 0-103.51 41.493-110.336 97.858-7.374 60.884 36.159 116.415 97.043 123.79 60.874 7.366 116.415-36.16 123.79-97.043 7.374-60.884-36.16-116.416-97.042-123.79a111.977 111.977 0 0 0-13.455-.815z" fill="#ff4692"/><path clip-rule="evenodd" d="M829.854 1529.33c136.45-229.006 61.306-525.709-167.698-662.157S136.451 805.863 0 1034.87zm627.232-738.985 21.19 162.22 139.071 24.713-139.07 24.718-21.191 162.22-21.187-162.22-139.07-24.718 139.07-24.714z" fill="#b4b4fc" fill-rule="evenodd"/><path d="M1237.346 1513.937a2.251 2.251 0 0 1-2.232-1.959l-32.7-250.353-214.404-38.107c-1.074-.192-1.855-1.123-1.855-2.216s.781-2.025 1.855-2.216l214.405-38.1 32.699-250.353a2.251 2.251 0 0 1 4.463 0l32.704 250.352 214.404 38.1c1.074.192 1.856 1.123 1.856 2.217s-.782 2.024-1.856 2.216l-214.404 38.107-32.704 250.353a2.251 2.251 0 0 1-2.231 1.959zm-236.082-292.633 203.563 36.181c.967.172 1.71.951 1.839 1.924l30.682 234.907 30.686-234.907a2.253 2.253 0 0 1 1.839-1.924l203.562-36.18-203.562-36.177a2.25 2.25 0 0 1-1.84-1.924l-30.685-234.907-30.682 234.907a2.253 2.253 0 0 1-1.839 1.924z" fill="#924dff"/><path clip-rule="evenodd" d="M909.47 407.251c57.887-38.778 136.368-23.263 175.146 34.624 38.778 57.888 23.264 136.369-34.624 175.147s-136.369 23.264-175.147-34.624c-38.778-57.888-23.264-136.369 34.624-175.147zm45.057 67.261c20.765-13.91 48.918-8.345 62.828 12.42 13.911 20.766 8.346 48.919-12.42 62.83s-48.918 8.345-62.829-12.421c-13.91-20.766-8.345-48.918 12.42-62.829z" fill="#ff4692" fill-rule="evenodd"/><path d="M432.474 729.055a2.25 2.25 0 0 1-2.252-2.205l-5.592-280.695-260.56 104.537a2.249 2.249 0 0 1-2.276-3.818l215.985-179.399L133.592 228.94a2.249 2.249 0 0 1 1.567-4.159l274.89 57.003-43.927-277.29a2.25 2.25 0 0 1 4.228-1.369l126.82 250.468L686.564 46.371a2.25 2.25 0 0 1 3.707 2.454L573.534 304.136l280.11 18.86a2.25 2.25 0 0 1 .393 4.429l-272.41 67.923 159.914 230.774a2.25 2.25 0 0 1-3.218 3.068L515.36 458.537l-80.735 268.918a2.245 2.245 0 0 1-2.15 1.6zm-5.66-288.45a2.254 2.254 0 0 1 2.25 2.205l5.373 269.627 77.552-258.314a2.25 2.25 0 0 1 3.521-1.14l214.173 163.925L576.075 395.23a2.247 2.247 0 0 1 1.305-3.464l261.669-65.244-269.066-18.117a2.25 2.25 0 0 1-1.896-3.18L680.22 59.978 498.291 259.032a2.249 2.249 0 0 1-3.668-.502L372.805 17.937 415 284.297a2.247 2.247 0 0 1-.67 1.98 2.255 2.255 0 0 1-2.01.574l-264.05-54.756 234.559 133.074a2.25 2.25 0 0 1 .327 3.687L175.685 541.18l250.289-100.417a2.3 2.3 0 0 1 .84-.159z" fill="#924dff"/><g fill="#fff"><path d="M383.963 366.927a2.248 2.248 0 0 0-1.131-1.758l-74.664-42.359v5.174l69.611 39.492-69.611 57.819v5.85l74.991-62.288c.569-.472.87-1.194.804-1.93zm469.683-43.932-280.11-18.859 46.63-101.983h-4.948L568.09 305.227a2.251 2.251 0 0 0 1.895 3.18l269.066 18.116-261.669 65.245a2.248 2.248 0 0 0-1.305 3.465l153.608 221.676-214.174-163.926a2.248 2.248 0 0 0-3.522 1.14l-77.552 258.314-5.372-269.628a2.254 2.254 0 0 0-2.25-2.206c-.283 0-.567.053-.837.162l-117.809 47.266v4.849l116.462-46.725 5.592 280.695a2.252 2.252 0 0 0 4.405.603l80.735-268.916L738.327 629.19a2.25 2.25 0 0 0 3.217-3.068L581.63 395.346l272.41-67.923a2.25 2.25 0 0 0-.394-4.428zm-443.596-41.21-101.881-21.127v4.596l104.156 21.599a2.252 2.252 0 0 0 2.679-2.555l-13.013-82.144h-4.556zm86.279-22.041a2.254 2.254 0 0 0 1.965-.711l51.986-56.88h-6.096l-47.015 51.44-26.045-51.44h-5.044l28.546 56.378a2.256 2.256 0 0 0 1.703 1.213z"/><path clip-rule="evenodd" d="m1332.651 251.332-6.424-49.179h-21.557l-6.423 49.179-112.904 20.064 112.904 20.067 17.201 131.697 17.203-131.697 112.904-20.067z" fill-rule="evenodd"/><path d="m1486.684 1219.089-214.404-38.102-32.703-250.352a2.25 2.25 0 0 0-4.462 0l-32.698 250.352-214.404 38.102a2.249 2.249 0 0 0 0 4.43l214.404 38.108 15.428 118.124h4.539l-15.718-120.342a2.25 2.25 0 0 0-1.838-1.924l-203.563-36.182 203.563-36.175a2.25 2.25 0 0 0 1.838-1.924l30.681-234.906 30.686 234.906a2.25 2.25 0 0 0 1.838 1.924l203.563 36.175-203.563 36.182a2.25 2.25 0 0 0-1.838 1.924l-15.72 120.342h4.539l15.43-118.124 214.404-38.108a2.249 2.249 0 0 0-.002-4.43zm-1314.162-81.423c20.543-27.378 53.235-44.642 88.974-44.642 4.442 0 8.936.268 13.455.814 60.884 7.375 104.417 62.907 97.042 123.791a110.76 110.76 0 0 1-9.442 33.263l3.888 2.317a115.246 115.246 0 0 0 10.022-35.039c7.672-63.347-37.622-121.126-100.969-128.799-42.695-5.176-82.857 13.717-106.858 45.978z"/></g></svg></g><g transform="translate(725.0 1455.0) rotate(0.0 668.75 447.5) scale(1.7631534543307006 1.7621821919183767)"><svg width="758.584" height="507.893" viewBox="0 0 758.584 507.893"><g fill="#FFF"><path d="M.004 189.804 32.8 150.93c11.234 14.578 23.078 22.171 36.749 22.171 17.312 0 26.718-10.625 26.718-30.968V50.73H22.785V4.277h133.011v134.23c0 55.265-28.546 82.607-81.997 82.607-30.983-.03-57.404-10.967-73.795-31.31zm185.542-79.264C185.546 46.763 235.654.013 303.683.013S421.82 46.777 421.82 110.541c0 63.779-50.108 110.543-118.137 110.543S185.546 174.32 185.546 110.541zm175.526 0c0-36.748-25.202-60.732-57.389-60.732-32.201 0-57.39 23.984-57.39 60.733s25.203 60.733 57.39 60.733 57.39-23.984 57.39-60.733zM453.398 4.262h60.123v212.572h-60.123zm305.194 0v212.572h-49.498l-93.841-113.277v113.277h-58.905V4.262h49.498l93.826 113.278V4.262zM25.519 408.885V291.06h60.123v116.012c0 36.437 15.172 51.014 40.39 51.014 24.905 0 40.092-14.577 40.092-51.014V291.06h59.217v117.825c0 63.467-37.046 98.997-99.918 98.997-62.858.015-99.904-35.515-99.904-98.997zm225.619 75.623 19.75-44.343c18.827 12.453 45.545 20.953 70.153 20.953 24.906 0 34.624-6.984 34.624-17.312 0-33.702-120.856-9.11-120.856-88.06 0-37.968 30.968-68.936 94.138-68.936 27.64 0 56.185 6.375 77.138 18.53l-18.53 44.64c-20.344-10.937-40.39-16.405-58.92-16.405-25.203 0-34.312 8.5-34.312 19.124 0 32.5 120.56 8.203 120.56 86.56 0 37.046-30.97 68.623-94.139 68.623-34.936.015-69.56-9.406-89.606-23.374zm201.338-10.016c0-17.921 14.266-31.28 34.624-31.28 20.343 0 34.312 13.359 34.312 31.28 0 17.609-13.969 31.89-34.312 31.89-20.358 0-34.624-14.281-34.624-31.89zm.312-183.432h68.639l-11.532 135.137h-45.858z"/></g></svg></g></svg>